<svg xmlns="http://www.w3.org/2000/svg" width="109" height="43" viewBox="0 0 109 43" fill="none" id="Logo"><g id="logomark"><path d="M64.9305 11.4285C62.1874 8.68528 58.9306 6.50918 55.3465 5.02458C51.7623 3.53998 47.9209 2.77588 44.0414 2.77588C40.1619 2.77588 36.3205 3.53998 32.7363 5.02458C29.1522 6.50918 25.8955 8.68528 23.1523 11.4285L44.0414 32.3175L64.9305 11.4285Z" fill="#FFD200"></path><path d="M44.0684 32.3476C46.8116 35.0908 50.0682 37.2668 53.6524 38.7514C57.2365 40.236 61.078 41.0001 64.9575 41.0001C68.8368 41.0001 72.6788 40.236 76.2628 38.7514C79.8468 37.2668 83.1038 35.0908 85.8468 32.3476L64.9575 11.4585L44.0684 32.3476Z" fill="#06E07F"></path><path d="M44.0165 32.3427C41.2733 35.0859 38.0166 37.2619 34.4325 38.7465C30.8483 40.2311 27.0069 40.9952 23.1274 40.9952C19.2479 40.9952 15.4065 40.2311 11.8223 38.7465C8.23818 37.2619 4.98148 35.0859 2.23828 32.3427L23.1274 11.4536L44.0165 32.3427Z" fill="#E3073C"></path><path d="M64.9824 11.4328C67.7253 8.68957 70.9823 6.51357 74.5663 5.02897C78.1503 3.54437 81.9923 2.78027 85.8713 2.78027C89.7513 2.78027 93.5923 3.54437 97.1763 5.02897C100.76 6.51357 104.017 8.68957 106.76 11.4328L85.8713 32.3219L64.9824 11.4328Z" fill="#1F84EF"></path></g></svg>